<svg xmlns="http://www.w3.org/2000/svg" version="1.1" xmlns:xlink="http://www.w3.org/1999/xlink" width="512" height="512" x="0" y="0" viewBox="0 0 24 24" style="enable-background:new 0 0 512 512" xml:space="preserve" class=""><g><path d="M12 24a12 12 0 1 1 12-12 12.013 12.013 0 0 1-12 12Zm0-22a10 10 0 1 0 10 10A10.011 10.011 0 0 0 12 2Zm5 14a1 1 0 0 0-1-1H8a1 1 0 0 0 0 2h8a1 1 0 0 0 1-1ZM6 10c0 1 .895 1 2 1s2 0 2-1a2 2 0 0 0-4 0Zm8 0c0 1 .895 1 2 1s2 0 2-1a2 2 0 0 0-4 0Z" fill="#ff8a40" opacity="1" data-original="#000000" class=""></path></g></svg>