<svg xmlns="http://www.w3.org/2000/svg" version="1.1" xmlns:xlink="http://www.w3.org/1999/xlink" width="512" height="512" x="0" y="0" viewBox="0 0 24 24" style="enable-background:new 0 0 512 512" xml:space="preserve" class=""><g><path d="M21 12a9.143 9.143 0 0 0-.15-1.645L23.893 8.6l-3-5.2-3.044 1.759A9 9 0 0 0 15 3.513V0H9v3.513a9 9 0 0 0-2.849 1.646L3.107 3.4l-3 5.2 3.043 1.755a9.1 9.1 0 0 0 0 3.29L.107 15.4l3 5.2 3.044-1.758A9 9 0 0 0 9 20.487V24h6v-3.513a9 9 0 0 0 2.849-1.646l3.044 1.759 3-5.2-3.043-1.755A9.143 9.143 0 0 0 21 12Zm-6 0a3 3 0 1 1-3-3 3 3 0 0 1 3 3Z" fill="#ffffff" opacity="1" data-original="#000000" class=""></path></g></svg>